#N canvas 793 24 450 427 10;
#X obj 106 68 unpackOSC;
#X obj 37 97 print unpacked;
#X obj 106 33 udpreceive 9002;
#X obj 206 67 route received from;
#X floatatom 272 117 3 0 0 0 - - -, f 3;
#X floatatom 299 117 3 0 0 0 - - -, f 3;
#X floatatom 326 117 3 0 0 0 - - -, f 3;
#X floatatom 353 117 3 0 0 0 - - -, f 3;
#X text 232 116 from;
#X obj 272 93 unpack 0 0 0 0 0;
#X floatatom 381 117 8 0 0 0 - - -, f 8;
#X floatatom 207 138 5 0 0 0 - - -, f 5;
#X text 247 138 bytes;
#X floatatom 171 93 5 0 0 0 - - -, f 5;
#X obj 92 212 routeOSC /pot1 /pot2 /pot3 /pot4 /pot5 /pot6 /pot7;
#X obj 108 124 routeOSC /lop;
#X obj 152 178 routeOSC /but1 /but2 /but3 /but4;
#X obj 87 262 print pot1;
#X obj 160 262 print pot2;
#X connect 0 0 1 0;
#X connect 0 0 15 0;
#X connect 0 1 13 0;
#X connect 2 0 0 0;
#X connect 2 1 3 0;
#X connect 3 0 11 0;
#X connect 3 1 9 0;
#X connect 9 0 4 0;
#X connect 9 1 5 0;
#X connect 9 2 6 0;
#X connect 9 3 7 0;
#X connect 9 4 10 0;
#X connect 14 0 17 0;
#X connect 14 1 18 0;
#X connect 15 0 14 0;
#X connect 15 0 16 0;
