#N canvas 410 117 908 766 10;
#X obj 135 337 makenote 64 250;
#X msg 123 272 60;
#X msg 158 272 62;
#X msg 196 273 64;
#X msg 233 273 65;
#X msg 270 273 67;
#X msg 313 272 69;
#X msg 357 272 70;
#X msg 401 272 72;
#X obj 121 95 metro 500;
#X obj 71 134 bng 15 250 50 0 empty empty empty 17 7 0 10 -262144 -1
-1;
#X obj 121 65 tgl 15 0 empty empty empty 17 7 0 10 -262144 -1 -1 0
1;
#X obj 121 123 i;
#X obj 166 123 + 1;
#X floatatom 121 152 5 0 0 0 - - -, f 5;
#X obj 122 184 % 8;
#X floatatom 52 211 5 0 0 0 - - -, f 5;
#X obj 122 215 sel 0 1 2 3 4 5 6 7;
#X obj 541 41 hsl 80 15 0 1023 0 0 empty empty empty -2 -8 0 10 -228856
-1 -1 4433 1;
#X obj 538 119 nbx 5 14 -1e+37 1e+37 0 0 empty empty empty 0 -8 0 10
-228856 -1 -1 579.59 256;
#X obj 538 65 nbx 5 14 -1e+37 1e+37 0 0 empty empty empty 0 -8 0 10
-228856 -1 -1 574 256;
#X obj 538 90 mapper, f 12;
#X obj 449 671 netreceive 3000;
#X obj 449 735 s p1;
#X obj 490 735 s p2;
#X obj 532 734 s p3;
#X obj 449 704 route 0 1 2 3, f 16;
#X obj 578 734 s p4;
#X obj 135 370 mtof;
#X floatatom 86 411 5 0 0 0 - - -, f 5;
#X obj 135 410 osc~ 440;
#X obj 134 487 dac~, f 6;
#X text 446 634 Receive messages from Python and route them to the
proper receive objects;
#X text 534 18 input pot 1;
#X text 632 18 pot range;
#X text 634 80 new range;
#X obj 539 179 hsl 80 15 0 1023 0 0 empty empty empty -2 -8 0 10 -228856
-1 -1 2672 1;
#X obj 536 257 nbx 5 14 -1e+37 1e+37 0 0 empty empty empty 0 -8 0 10
-228856 -1 -1 746.582 256;
#X obj 536 203 nbx 5 14 -1e+37 1e+37 0 0 empty empty empty 0 -8 0 10
-228856 -1 -1 346 256;
#X obj 536 228 mapper, f 12;
#X text 532 156 input pot 2;
#X obj 447 40 r p1;
#X obj 450 179 r p2;
#X obj 447 69 unpack;
#X obj 450 208 unpack;
#X text 678 40 low, f 5;
#X text 679 63 high, f 5;
#X text 680 101 low, f 5;
#X text 681 124 high, f 5;
#X msg 635 99 1000;
#X msg 636 124 250;
#X msg 635 38 0;
#X msg 636 61 1024;
#X text 635 159 pot range;
#X text 637 221 new range;
#X text 681 181 low, f 5;
#X text 682 204 high, f 5;
#X text 683 242 low, f 5;
#X text 684 265 high, f 5;
#X msg 638 240 1000;
#X msg 639 265 250;
#X msg 638 179 0;
#X msg 639 202 1024;
#X obj 542 331 hsl 80 15 0 1023 0 0 empty empty empty -2 -8 0 10 -228856
-1 -1 3823 1;
#X obj 539 409 nbx 5 14 -1e+37 1e+37 0 0 empty empty empty 0 -8 0 10
-228856 -1 -1 1000 256;
#X obj 539 355 nbx 5 14 -1e+37 1e+37 0 0 empty empty empty 0 -8 0 10
-228856 -1 -1 495 256;
#X obj 539 380 mapper, f 12;
#X obj 453 360 unpack;
#X text 638 311 pot range;
#X text 640 373 new range;
#X text 684 333 low, f 5;
#X text 685 356 high, f 5;
#X text 686 394 low, f 5;
#X text 687 417 high, f 5;
#X msg 641 392 1000;
#X msg 642 417 250;
#X msg 641 331 0;
#X msg 642 354 1024;
#X text 535 308 input pot 3;
#X obj 453 331 r p3;
#X obj 542 469 hsl 80 15 0 1023 0 0 empty empty empty -2 -8 0 10 -228856
-1 -1 2023 1;
#X obj 539 547 nbx 5 14 -1e+37 1e+37 0 0 empty empty empty 0 -8 0 10
-228856 -1 -1 1000 256;
#X obj 539 493 nbx 5 14 -1e+37 1e+37 0 0 empty empty empty 0 -8 0 10
-228856 -1 -1 262 256;
#X obj 539 518 mapper, f 12;
#X obj 453 498 unpack;
#X text 638 449 pot range;
#X text 640 511 new range;
#X text 684 471 low, f 5;
#X text 685 494 high, f 5;
#X text 686 532 low, f 5;
#X text 687 555 high, f 5;
#X msg 641 530 1000;
#X msg 642 555 250;
#X msg 641 469 0;
#X msg 642 492 1024;
#X text 535 446 input pot 4;
#X obj 453 469 r p4;
#X connect 0 0 28 0;
#X connect 1 0 0 0;
#X connect 2 0 0 0;
#X connect 3 0 0 0;
#X connect 4 0 0 0;
#X connect 5 0 0 0;
#X connect 6 0 0 0;
#X connect 7 0 0 0;
#X connect 8 0 0 0;
#X connect 9 0 10 0;
#X connect 9 0 12 0;
#X connect 11 0 9 0;
#X connect 12 0 13 0;
#X connect 12 0 14 0;
#X connect 13 0 12 1;
#X connect 14 0 15 0;
#X connect 15 0 16 0;
#X connect 15 0 17 0;
#X connect 17 0 1 0;
#X connect 17 1 5 0;
#X connect 17 2 2 0;
#X connect 17 3 3 0;
#X connect 17 4 8 0;
#X connect 17 5 6 0;
#X connect 17 6 7 0;
#X connect 17 7 4 0;
#X connect 17 8 5 0;
#X connect 18 0 20 0;
#X connect 19 0 9 1;
#X connect 20 0 21 0;
#X connect 21 0 19 0;
#X connect 22 0 26 0;
#X connect 26 0 23 0;
#X connect 26 1 24 0;
#X connect 26 2 25 0;
#X connect 26 3 27 0;
#X connect 28 0 29 0;
#X connect 28 0 30 0;
#X connect 30 0 31 0;
#X connect 30 0 31 1;
#X connect 36 0 38 0;
#X connect 38 0 39 0;
#X connect 39 0 37 0;
#X connect 41 0 43 0;
#X connect 42 0 44 0;
#X connect 43 0 18 0;
#X connect 44 0 36 0;
#X connect 49 0 21 3;
#X connect 50 0 21 4;
#X connect 51 0 21 1;
#X connect 52 0 21 2;
#X connect 59 0 39 3;
#X connect 60 0 39 4;
#X connect 61 0 39 1;
#X connect 62 0 39 2;
#X connect 63 0 65 0;
#X connect 65 0 66 0;
#X connect 66 0 64 0;
#X connect 67 0 63 0;
#X connect 74 0 66 3;
#X connect 75 0 66 4;
#X connect 76 0 66 1;
#X connect 77 0 66 2;
#X connect 79 0 67 0;
#X connect 80 0 82 0;
#X connect 82 0 83 0;
#X connect 83 0 81 0;
#X connect 84 0 80 0;
#X connect 91 0 83 3;
#X connect 92 0 83 4;
#X connect 93 0 83 1;
#X connect 94 0 83 2;
#X connect 96 0 84 0;
