#N canvas 532 49 656 625 10;
#X obj 123 317 makenote 64 250;
#X obj 123 353 noteout 1;
#X msg 123 272 60;
#X msg 158 272 62;
#X msg 196 273 64;
#X msg 233 273 65;
#X msg 270 273 67;
#X msg 313 272 69;
#X msg 357 272 70;
#X msg 401 272 72;
#X obj 121 95 metro 500;
#X msg 219 30 250;
#X msg 219 55 500;
#X msg 219 79 1500;
#X obj 71 134 bng 15 250 50 0 empty empty empty 17 7 0 10 -262144 -1
-1;
#X obj 121 65 tgl 15 0 empty empty empty 17 7 0 10 -262144 -1 -1 0
1;
#X obj 121 123 i;
#X obj 166 123 + 1;
#X floatatom 121 152 5 0 0 0 - - -, f 5;
#X obj 122 184 % 8;
#X floatatom 52 211 5 0 0 0 - - -, f 5;
#X obj 122 215 sel 0 1 2 3 4 5 6 7;
#X obj 352 69 hsl 128 15 -1 1 0 0 empty empty empty -2 -8 0 10 -228856
-1 -1 800 1;
#X obj 349 125 cyclone/scale -1 1 0 127;
#X obj 349 155 nbx 5 14 -1e+37 1e+37 0 0 empty empty empty 0 -8 0 10
-228856 -1 -1 8 256;
#X obj 349 97 nbx 5 14 -1e+37 1e+37 0 0 empty empty empty 0 -8 0 10
-228856 -1 -1 -0.874016 256;
#X connect 0 0 1 0;
#X connect 0 1 1 1;
#X connect 2 0 0 0;
#X connect 3 0 0 0;
#X connect 4 0 0 0;
#X connect 5 0 0 0;
#X connect 6 0 0 0;
#X connect 7 0 0 0;
#X connect 8 0 0 0;
#X connect 9 0 0 0;
#X connect 10 0 14 0;
#X connect 10 0 16 0;
#X connect 11 0 10 1;
#X connect 12 0 10 1;
#X connect 13 0 10 1;
#X connect 15 0 10 0;
#X connect 16 0 17 0;
#X connect 16 0 18 0;
#X connect 17 0 16 1;
#X connect 18 0 19 0;
#X connect 19 0 20 0;
#X connect 19 0 21 0;
#X connect 21 0 2 0;
#X connect 21 1 6 0;
#X connect 21 2 3 0;
#X connect 21 3 4 0;
#X connect 21 4 9 0;
#X connect 21 5 7 0;
#X connect 21 6 8 0;
#X connect 21 7 5 0;
#X connect 21 8 6 0;
#X connect 22 0 25 0;
#X connect 23 0 24 0;
#X connect 24 0 19 1;
#X connect 25 0 23 0;
