#N canvas 138 95 754 625 10;
#X obj 123 317 makenote 64 250;
#X msg 123 272 60;
#X msg 158 272 62;
#X msg 196 273 64;
#X msg 233 273 65;
#X msg 270 273 67;
#X msg 313 272 69;
#X msg 357 272 70;
#X msg 401 272 72;
#X obj 121 95 metro 500;
#X msg 219 30 250;
#X msg 219 55 500;
#X msg 219 79 1500;
#X obj 71 134 bng 15 250 50 0 empty empty empty 17 7 0 10 -262144 -1
-1;
#X obj 121 65 tgl 15 0 empty empty empty 17 7 0 10 -262144 -1 -1 0
1;
#X obj 121 123 i;
#X obj 166 123 + 1;
#X floatatom 121 152 5 0 0 0 - - -, f 5;
#X obj 122 184 % 8;
#X floatatom 52 211 5 0 0 0 - - -, f 5;
#X obj 122 215 sel 0 1 2 3 4 5 6 7;
#X obj 352 49 hsl 128 15 -1 1 0 0 empty empty empty -2 -8 0 10 -228856
-1 -1 0 1;
#X obj 349 155 nbx 5 14 -1e+37 1e+37 0 0 empty empty empty 0 -8 0 10
-228856 -1 -1 0 256;
#X obj 349 84 nbx 5 14 -1e+37 1e+37 0 0 empty empty empty 0 -8 0 10
-228856 -1 -1 0 256;
#X obj 349 125 mapper, f 23;
#X text 409 25 input from pot 1;
#X obj 401 389 netreceive 3000;
#X text 398 328 Receive messages from Python and route them to the
proper receive objects in the patch;
#X obj 401 453 s p1;
#X obj 442 453 s p2;
#X obj 484 452 s p3;
#X obj 401 422 route 0 1 2 3, f 16;
#X obj 530 452 s p4;
#X obj 135 370 mtof;
#X floatatom 86 411 5 0 0 0 - - -, f 5;
#X obj 135 410 osc~ 440;
#X obj 134 487 dac~, f 6;
#X connect 0 0 33 0;
#X connect 1 0 0 0;
#X connect 2 0 0 0;
#X connect 3 0 0 0;
#X connect 4 0 0 0;
#X connect 5 0 0 0;
#X connect 6 0 0 0;
#X connect 7 0 0 0;
#X connect 8 0 0 0;
#X connect 9 0 13 0;
#X connect 9 0 15 0;
#X connect 10 0 9 1;
#X connect 11 0 9 1;
#X connect 12 0 9 1;
#X connect 14 0 9 0;
#X connect 15 0 16 0;
#X connect 15 0 17 0;
#X connect 16 0 15 1;
#X connect 17 0 18 0;
#X connect 18 0 19 0;
#X connect 18 0 20 0;
#X connect 20 0 1 0;
#X connect 20 1 5 0;
#X connect 20 2 2 0;
#X connect 20 3 3 0;
#X connect 20 4 8 0;
#X connect 20 5 6 0;
#X connect 20 6 7 0;
#X connect 20 7 4 0;
#X connect 20 8 5 0;
#X connect 21 0 23 0;
#X connect 22 0 18 1;
#X connect 23 0 24 0;
#X connect 24 0 22 0;
#X connect 26 0 31 0;
#X connect 31 0 28 0;
#X connect 31 1 29 0;
#X connect 31 2 30 0;
#X connect 31 3 32 0;
#X connect 33 0 34 0;
#X connect 33 0 35 0;
#X connect 35 0 36 0;
#X connect 35 0 36 1;
