#N canvas 123 153 754 625 10;
#X obj 135 337 makenote 64 250;
#X msg 123 272 60;
#X msg 158 272 62;
#X msg 196 273 64;
#X msg 233 273 65;
#X msg 270 273 67;
#X msg 313 272 69;
#X msg 357 272 70;
#X msg 401 272 72;
#X obj 121 95 metro 500;
#X obj 71 134 bng 15 250 50 0 empty empty empty 17 7 0 10 -262144 -1
-1;
#X obj 121 65 tgl 15 0 empty empty empty 17 7 0 10 -262144 -1 -1 0
1;
#X obj 121 123 i;
#X obj 166 123 + 1;
#X floatatom 121 152 5 0 0 0 - - -, f 5;
#X obj 122 184 % 8;
#X floatatom 52 211 5 0 0 0 - - -, f 5;
#X obj 122 215 sel 0 1 2 3 4 5 6 7;
#X obj 541 41 hsl 80 15 0 1023 0 0 empty empty empty -2 -8 0 10 -228856
-1 -1 6700 1;
#X obj 538 119 nbx 5 14 -1e+37 1e+37 0 0 empty empty empty 0 -8 0 10
-228856 -1 -1 237.454 256;
#X obj 538 65 nbx 5 14 -1e+37 1e+37 0 0 empty empty empty 0 -8 0 10
-228856 -1 -1 867.608 256;
#X obj 538 90 mapper, f 12;
#X obj 431 534 netreceive 3000;
#X obj 431 598 s p1;
#X obj 472 598 s p2;
#X obj 514 597 s p3;
#X obj 431 567 route 0 1 2 3, f 16;
#X obj 560 597 s p4;
#X obj 135 370 mtof;
#X floatatom 86 411 5 0 0 0 - - -, f 5;
#X obj 135 410 osc~ 440;
#X obj 134 487 dac~, f 6;
#X text 428 497 Receive messages from Python and route them to the
proper receive objects;
#X floatatom 637 41 5 0 0 0 - - -, f 5;
#X text 534 18 input pot 1;
#X text 633 18 pot range;
#X floatatom 637 63 5 0 0 0 - - -, f 5;
#X floatatom 637 97 5 0 0 0 - - -, f 5;
#X floatatom 638 120 5 0 0 0 - - -, f 5;
#X text 634 80 new range;
#X obj 539 179 hsl 80 15 0 1023 0 0 empty empty empty -2 -8 0 10 -228856
-1 -1 0 1;
#X obj 536 257 nbx 5 14 -1e+37 1e+37 0 0 empty empty empty 0 -8 0 10
-228856 -1 -1 0 256;
#X obj 536 203 nbx 5 14 -1e+37 1e+37 0 0 empty empty empty 0 -8 0 10
-228856 -1 -1 0 256;
#X obj 536 228 mapper, f 12;
#X floatatom 635 179 5 0 0 0 - - -, f 5;
#X text 631 156 pot range;
#X floatatom 635 201 5 0 0 0 - - -, f 5;
#X floatatom 635 235 5 0 0 0 - - -, f 5;
#X floatatom 636 258 5 0 0 0 - - -, f 5;
#X text 632 218 new range;
#X text 532 156 input pot 2;
#X obj 447 40 r p1;
#X obj 450 179 r p2;
#X obj 447 69 unpack;
#X obj 450 208 unpack;
#X connect 0 0 28 0;
#X connect 1 0 0 0;
#X connect 2 0 0 0;
#X connect 3 0 0 0;
#X connect 4 0 0 0;
#X connect 5 0 0 0;
#X connect 6 0 0 0;
#X connect 7 0 0 0;
#X connect 8 0 0 0;
#X connect 9 0 10 0;
#X connect 9 0 12 0;
#X connect 11 0 9 0;
#X connect 12 0 13 0;
#X connect 12 0 14 0;
#X connect 13 0 12 1;
#X connect 14 0 15 0;
#X connect 15 0 16 0;
#X connect 15 0 17 0;
#X connect 17 0 1 0;
#X connect 17 1 5 0;
#X connect 17 2 2 0;
#X connect 17 3 3 0;
#X connect 17 4 8 0;
#X connect 17 5 6 0;
#X connect 17 6 7 0;
#X connect 17 7 4 0;
#X connect 17 8 5 0;
#X connect 18 0 20 0;
#X connect 19 0 9 1;
#X connect 20 0 21 0;
#X connect 21 0 19 0;
#X connect 22 0 26 0;
#X connect 26 0 23 0;
#X connect 26 1 24 0;
#X connect 26 2 25 0;
#X connect 26 3 27 0;
#X connect 28 0 29 0;
#X connect 28 0 30 0;
#X connect 30 0 31 0;
#X connect 30 0 31 1;
#X connect 33 0 21 1;
#X connect 36 0 21 2;
#X connect 37 0 21 3;
#X connect 38 0 21 4;
#X connect 40 0 42 0;
#X connect 42 0 43 0;
#X connect 43 0 41 0;
#X connect 44 0 43 1;
#X connect 46 0 43 2;
#X connect 47 0 43 3;
#X connect 48 0 43 4;
#X connect 51 0 53 0;
#X connect 52 0 54 0;
#X connect 53 0 18 0;
#X connect 54 0 40 0;
