#N canvas 600 378 1131 766 10;
#X obj 135 337 makenote 64 250;
#X msg 123 272 60;
#X msg 158 272 62;
#X msg 196 273 64;
#X msg 233 273 65;
#X msg 270 273 67;
#X msg 313 272 69;
#X msg 357 272 70;
#X msg 401 272 72;
#X obj 121 95 metro 500;
#X obj 71 134 bng 15 250 50 0 empty empty empty 17 7 0 10 -262144 -1
-1;
#X obj 121 65 tgl 15 0 empty empty empty 17 7 0 10 -262144 -1 -1 0
1;
#X obj 121 123 i;
#X obj 166 123 + 1;
#X floatatom 121 152 5 0 0 0 - - -, f 5;
#X obj 122 184 % 8;
#X floatatom 52 211 5 0 0 0 - - -, f 5;
#X obj 122 215 sel 0 1 2 3 4 5 6 7;
#X obj 135 370 mtof;
#X floatatom 86 411 5 0 0 0 - - -, f 5;
#X obj 135 410 osc~ 440;
#X obj 134 487 dac~, f 6;
#N canvas 963 309 926 750 routing 0;
#X obj 139 72 hsl 80 15 0 1023 0 0 empty empty empty -2 -8 0 10 -228856
-1 -1 0 1;
#X obj 136 150 nbx 5 14 -1e+37 1e+37 0 0 empty empty empty 0 -8 0 10
-228856 -1 -1 0 256;
#X obj 136 96 nbx 5 14 -1e+37 1e+37 0 0 empty empty empty 0 -8 0 10
-228856 -1 -1 0 256;
#X obj 136 121 mapper, f 12;
#X text 132 49 input pot 1;
#X text 230 49 pot range;
#X text 232 111 new range;
#X obj 137 210 hsl 80 15 0 1023 0 0 empty empty empty -2 -8 0 10 -228856
-1 -1 0 1;
#X obj 134 288 nbx 5 14 -1e+37 1e+37 0 0 empty empty empty 0 -8 0 10
-228856 -1 -1 0 256;
#X obj 134 234 nbx 5 14 -1e+37 1e+37 0 0 empty empty empty 0 -8 0 10
-228856 -1 -1 0 256;
#X obj 134 259 mapper, f 12;
#X text 130 187 input pot 2;
#X obj 45 71 r p1;
#X obj 48 210 r p2;
#X obj 45 100 unpack;
#X obj 48 239 unpack;
#X text 276 71 low, f 5;
#X text 277 94 high, f 5;
#X text 278 132 low, f 5;
#X text 279 155 high, f 5;
#X msg 233 69 0;
#X msg 234 92 1024;
#X text 233 190 pot range;
#X text 235 252 new range;
#X text 279 212 low, f 5;
#X text 280 235 high, f 5;
#X text 281 273 low, f 5;
#X text 282 296 high, f 5;
#X msg 236 210 0;
#X msg 237 233 1024;
#X obj 140 362 hsl 80 15 0 1023 0 0 empty empty empty -2 -8 0 10 -228856
-1 -1 0 1;
#X obj 137 440 nbx 5 14 -1e+37 1e+37 0 0 empty empty empty 0 -8 0 10
-228856 -1 -1 0 256;
#X obj 137 386 nbx 5 14 -1e+37 1e+37 0 0 empty empty empty 0 -8 0 10
-228856 -1 -1 0 256;
#X obj 137 411 mapper, f 12;
#X obj 51 391 unpack;
#X text 236 342 pot range;
#X text 238 404 new range;
#X text 282 364 low, f 5;
#X text 283 387 high, f 5;
#X text 284 425 low, f 5;
#X text 285 448 high, f 5;
#X msg 239 362 0;
#X msg 240 385 1024;
#X text 133 339 input pot 3;
#X obj 51 362 r p3;
#X obj 140 500 hsl 80 15 0 1023 0 0 empty empty empty -2 -8 0 10 -228856
-1 -1 0 1;
#X obj 137 578 nbx 5 14 -1e+37 1e+37 0 0 empty empty empty 0 -8 0 10
-228856 -1 -1 0 256;
#X obj 137 524 nbx 5 14 -1e+37 1e+37 0 0 empty empty empty 0 -8 0 10
-228856 -1 -1 0 256;
#X obj 137 549 mapper, f 12;
#X obj 51 529 unpack;
#X text 236 480 pot range;
#X text 238 542 new range;
#X text 282 502 low, f 5;
#X text 283 525 high, f 5;
#X text 284 563 low, f 5;
#X text 285 586 high, f 5;
#X msg 239 561 1000;
#X msg 240 586 250;
#X msg 239 500 0;
#X msg 240 523 1024;
#X text 133 477 input pot 4;
#X obj 51 500 r p4;
#X msg 233 130 0;
#X msg 234 155 40;
#X msg 236 271 0.5;
#X msg 237 296 30;
#X msg 239 423 0;
#X msg 240 448 1;
#X obj 350 62 loadbang;
#X obj 344 216 loadbang;
#X obj 339 363 loadbang;
#X obj 339 504 loadbang;
#X obj 46 165 s pot1;
#X obj 53 304 s pot2;
#X obj 53 455 s pot3;
#X obj 53 593 s pot4;
#X obj 567 66 hsl 80 15 0 1023 0 0 empty empty empty -2 -8 0 10 -228856
-1 -1 0 1;
#X obj 564 144 nbx 5 14 -1e+37 1e+37 0 0 empty empty empty 0 -8 0 10
-228856 -1 -1 0 256;
#X obj 564 90 nbx 5 14 -1e+37 1e+37 0 0 empty empty empty 0 -8 0 10
-228856 -1 -1 0 256;
#X obj 564 115 mapper, f 12;
#X text 658 43 pot range;
#X text 660 105 new range;
#X obj 565 204 hsl 80 15 0 1023 0 0 empty empty empty -2 -8 0 10 -228856
-1 -1 0 1;
#X obj 562 282 nbx 5 14 -1e+37 1e+37 0 0 empty empty empty 0 -8 0 10
-228856 -1 -1 0 256;
#X obj 562 228 nbx 5 14 -1e+37 1e+37 0 0 empty empty empty 0 -8 0 10
-228856 -1 -1 0 256;
#X obj 562 253 mapper, f 12;
#X obj 473 65 r p1;
#X obj 476 204 r p2;
#X obj 473 94 unpack;
#X obj 476 233 unpack;
#X text 704 65 low, f 5;
#X text 705 88 high, f 5;
#X text 706 126 low, f 5;
#X text 707 149 high, f 5;
#X msg 661 63 0;
#X msg 662 86 1024;
#X text 661 184 pot range;
#X text 663 246 new range;
#X text 707 206 low, f 5;
#X text 708 229 high, f 5;
#X text 709 267 low, f 5;
#X text 710 290 high, f 5;
#X msg 664 204 0;
#X msg 665 227 1024;
#X obj 568 356 hsl 80 15 0 1023 0 0 empty empty empty -2 -8 0 10 -228856
-1 -1 0 1;
#X obj 565 434 nbx 5 14 -1e+37 1e+37 0 0 empty empty empty 0 -8 0 10
-228856 -1 -1 0 256;
#X obj 565 380 nbx 5 14 -1e+37 1e+37 0 0 empty empty empty 0 -8 0 10
-228856 -1 -1 0 256;
#X obj 565 405 mapper, f 12;
#X obj 479 385 unpack;
#X text 664 336 pot range;
#X text 666 398 new range;
#X text 710 358 low, f 5;
#X text 711 381 high, f 5;
#X text 712 419 low, f 5;
#X text 713 442 high, f 5;
#X msg 667 356 0;
#X msg 668 379 1024;
#X obj 479 356 r p3;
#X obj 568 494 hsl 80 15 0 1023 0 0 empty empty empty -2 -8 0 10 -228856
-1 -1 0 1;
#X obj 565 572 nbx 5 14 -1e+37 1e+37 0 0 empty empty empty 0 -8 0 10
-228856 -1 -1 0 256;
#X obj 565 518 nbx 5 14 -1e+37 1e+37 0 0 empty empty empty 0 -8 0 10
-228856 -1 -1 0 256;
#X obj 565 543 mapper, f 12;
#X obj 479 523 unpack;
#X text 664 474 pot range;
#X text 666 536 new range;
#X text 710 496 low, f 5;
#X text 711 519 high, f 5;
#X text 712 557 low, f 5;
#X text 713 580 high, f 5;
#X msg 667 555 1000;
#X msg 668 580 250;
#X msg 667 494 0;
#X msg 668 517 1024;
#X obj 479 494 r p4;
#X msg 661 124 0;
#X msg 662 149 40;
#X msg 664 265 0.5;
#X msg 665 290 30;
#X msg 667 417 0;
#X msg 668 442 1;
#X obj 778 56 loadbang;
#X obj 772 210 loadbang;
#X obj 767 357 loadbang;
#X obj 767 498 loadbang;
#X text 560 43 input pot 5;
#X obj 474 159 s pot5;
#X text 558 181 input pot 6;
#X obj 481 298 s pot6;
#X text 561 333 input pot 7;
#X obj 481 449 s pot7;
#X text 561 471 input pot 8;
#X obj 481 587 s pot8;
#X connect 0 0 2 0;
#X connect 1 0 72 0;
#X connect 2 0 3 0;
#X connect 3 0 1 0;
#X connect 7 0 9 0;
#X connect 8 0 73 0;
#X connect 9 0 10 0;
#X connect 10 0 8 0;
#X connect 12 0 14 0;
#X connect 13 0 15 0;
#X connect 14 0 0 0;
#X connect 15 0 7 0;
#X connect 20 0 3 1;
#X connect 21 0 3 2;
#X connect 28 0 10 1;
#X connect 29 0 10 2;
#X connect 30 0 32 0;
#X connect 31 0 74 0;
#X connect 32 0 33 0;
#X connect 33 0 31 0;
#X connect 34 0 30 0;
#X connect 41 0 33 1;
#X connect 42 0 33 2;
#X connect 44 0 34 0;
#X connect 45 0 47 0;
#X connect 46 0 75 0;
#X connect 47 0 48 0;
#X connect 48 0 46 0;
#X connect 49 0 45 0;
#X connect 56 0 48 3;
#X connect 57 0 48 4;
#X connect 58 0 48 1;
#X connect 59 0 48 2;
#X connect 61 0 49 0;
#X connect 62 0 3 3;
#X connect 63 0 3 4;
#X connect 64 0 10 3;
#X connect 65 0 10 4;
#X connect 66 0 33 3;
#X connect 67 0 33 4;
#X connect 68 0 20 0;
#X connect 68 0 21 0;
#X connect 68 0 62 0;
#X connect 68 0 63 0;
#X connect 69 0 28 0;
#X connect 69 0 29 0;
#X connect 69 0 64 0;
#X connect 69 0 65 0;
#X connect 70 0 41 0;
#X connect 70 0 42 0;
#X connect 70 0 66 0;
#X connect 70 0 67 0;
#X connect 71 0 58 0;
#X connect 71 0 59 0;
#X connect 71 0 56 0;
#X connect 71 0 57 0;
#X connect 76 0 78 0;
#X connect 77 0 145 0;
#X connect 78 0 79 0;
#X connect 79 0 77 0;
#X connect 82 0 84 0;
#X connect 83 0 147 0;
#X connect 84 0 85 0;
#X connect 85 0 83 0;
#X connect 86 0 88 0;
#X connect 87 0 89 0;
#X connect 88 0 76 0;
#X connect 89 0 82 0;
#X connect 94 0 79 1;
#X connect 95 0 79 2;
#X connect 102 0 85 1;
#X connect 103 0 85 2;
#X connect 104 0 106 0;
#X connect 105 0 149 0;
#X connect 106 0 107 0;
#X connect 107 0 105 0;
#X connect 108 0 104 0;
#X connect 115 0 107 1;
#X connect 116 0 107 2;
#X connect 117 0 108 0;
#X connect 118 0 120 0;
#X connect 119 0 151 0;
#X connect 120 0 121 0;
#X connect 121 0 119 0;
#X connect 122 0 118 0;
#X connect 129 0 121 3;
#X connect 130 0 121 4;
#X connect 131 0 121 1;
#X connect 132 0 121 2;
#X connect 133 0 122 0;
#X connect 134 0 79 3;
#X connect 135 0 79 4;
#X connect 136 0 85 3;
#X connect 137 0 85 4;
#X connect 138 0 107 3;
#X connect 139 0 107 4;
#X connect 140 0 94 0;
#X connect 140 0 95 0;
#X connect 140 0 134 0;
#X connect 140 0 135 0;
#X connect 141 0 102 0;
#X connect 141 0 103 0;
#X connect 141 0 136 0;
#X connect 141 0 137 0;
#X connect 142 0 115 0;
#X connect 142 0 116 0;
#X connect 142 0 138 0;
#X connect 142 0 139 0;
#X connect 143 0 131 0;
#X connect 143 0 132 0;
#X connect 143 0 129 0;
#X connect 143 0 130 0;
#X restore 576 119 pd routing;
#N canvas 955 213 680 532 tcpcom 0;
#X obj 80 102 netreceive 3000;
#X obj 80 166 s p1;
#X obj 121 166 s p2;
#X obj 163 165 s p3;
#X obj 209 165 s p4;
#X text 77 65 Receive messages from Python and route them to the proper
receive objects;
#X obj 80 135 route 0 1 2 3 4 5 6 7;
#X connect 0 0 6 0;
#X connect 6 4 1 0;
#X connect 6 5 2 0;
#X connect 6 6 3 0;
#X connect 6 7 4 0;
#X restore 575 90 pd tcpcom;
#X connect 0 0 18 0;
#X connect 1 0 0 0;
#X connect 2 0 0 0;
#X connect 3 0 0 0;
#X connect 4 0 0 0;
#X connect 5 0 0 0;
#X connect 6 0 0 0;
#X connect 7 0 0 0;
#X connect 8 0 0 0;
#X connect 9 0 10 0;
#X connect 9 0 12 0;
#X connect 11 0 9 0;
#X connect 12 0 13 0;
#X connect 12 0 14 0;
#X connect 13 0 12 1;
#X connect 14 0 15 0;
#X connect 15 0 16 0;
#X connect 15 0 17 0;
#X connect 17 0 1 0;
#X connect 17 1 5 0;
#X connect 17 2 2 0;
#X connect 17 3 3 0;
#X connect 17 4 8 0;
#X connect 17 5 6 0;
#X connect 17 6 7 0;
#X connect 17 7 4 0;
#X connect 17 8 5 0;
#X connect 18 0 19 0;
#X connect 18 0 20 0;
#X connect 20 0 21 0;
#X connect 20 0 21 1;
