#N canvas 521 32 709 700 10;
#X obj 324 243 adc~;
#X obj 324 270 +~;
#X obj 42 407 dac~;
#X obj 133 184 hsl 200 25 0.5 30 1 1 empty empty vibrato-speed 20 12
0 14 -228856 -260097 -1 0 0;
#X obj 66 317 hsl 200 25 0 1 0 0 empty empty output-level 20 12 0 14
-228856 -260097 -1 17100 1;
#X floatatom 77 354 5 0 0 0 - - -, f 5;
#X obj 42 355 *~ 0;
#X text 355 240 input from soundcard;
#X obj 324 298 delwrite~ \$0-delay 2000;
#X obj 42 287 vd~ \$0-delay 2000;
#X obj 45 115 hsl 450 25 0 40 0 1 empty empty vibrato-depth 20 12 0
14 -228856 -260097 -1 0 0;
#X floatatom 141 218 5 0 0 0 - - -, f 5;
#X obj 42 261 *~;
#X msg 324 387 \; pd dsp 1;
#X obj 324 359 loadbang;
#X msg 404 388 \; pd dsp 0;
#X floatatom 53 170 5 0 0 0 - - -, f 5;
#X obj 42 147 pow 2;
#X text 218 136 |;
#X text 184 136 |;
#X text 347 136 |;
#X text 363 136 |;
#N canvas 704 185 202 319 trapezoid 0;
#X obj 25 124 phasor~ 1;
#X obj 25 199 abs~;
#X obj 25 176 *~ 2;
#X obj 25 251 clip~ 0 0.5;
#X obj 25 152 -~ 0.5;
#X obj 25 19 inlet~;
#X obj 25 282 outlet~;
#X obj 25 225 -~ 0.25;
#X text 74 43 resync;
#X msg 76 98 0.625;
#X msg 76 68 0.125;
#X text 116 67 higher note;
#X text 116 98 lower note;
#X connect 0 0 4 0;
#X connect 1 0 7 0;
#X connect 2 0 1 0;
#X connect 3 0 6 0;
#X connect 4 0 2 0;
#X connect 5 0 0 0;
#X connect 7 0 3 0;
#X connect 9 0 0 1;
#X connect 10 0 0 1;
#X restore 130 244 pd trapezoid;
#N canvas 607 254 240 245 depth 0;
#X obj 28 163 line~;
#X msg 28 137 \$1 100;
#X floatatom 54 111 5 0 0 0 - - -, f 5;
#X obj 28 94 /;
#X obj 36 66 t b f;
#X obj 28 29 inlet;
#X obj 69 29 inlet;
#X obj 28 195 outlet~;
#X connect 0 0 7 0;
#X connect 1 0 0 0;
#X connect 3 0 2 0;
#X connect 3 0 1 0;
#X connect 4 0 3 0;
#X connect 4 1 3 1;
#X connect 5 0 3 0;
#X connect 6 0 4 0;
#X restore 42 209 pd depth;
#X obj 42 379 hip~ 40;
#X text 40 452 Step-vibrato: step-wise modulation of variable speed
delay. The modulator is a trapezoid \, therefore you get three different
tones in a sequence of four notes:;
#X text 41 510 original - lower tone - original - higher tone;
#X text 41 540 Around vibrato depth value ~ 500 \, the lower tone has
playback speed zero. With vibrato depth above 500 \, the speed of the
lower tone is negative so the sound is played backwards.;
#X text 42 601 A few sweet spots appear on the vibrato depth scale
\, where undertone and overtone harmonize with the original.;
#X text 41 650 Haig Armen Feb 2018;
#X connect 0 0 1 0;
#X connect 0 1 1 1;
#X connect 1 0 8 0;
#X connect 3 0 11 0;
#X connect 3 0 22 0;
#X connect 3 0 23 1;
#X connect 4 0 5 0;
#X connect 4 0 6 1;
#X connect 6 0 24 0;
#X connect 9 0 6 0;
#X connect 10 0 17 0;
#X connect 12 0 9 0;
#X connect 14 0 13 0;
#X connect 17 0 16 0;
#X connect 17 0 23 0;
#X connect 22 0 12 1;
#X connect 23 0 12 0;
#X connect 24 0 2 0;
#X connect 24 0 2 1;
