#N canvas 487 95 1279 923 10;
#X obj 324 243 adc~;
#X obj 324 270 +~;
#X obj 41 450 dac~;
#X obj 133 184 hsl 200 25 0.5 30 1 1 empty empty vibrato-speed 20 12
0 14 -228856 -260097 -1 16648 0;
#X obj 65 360 hsl 200 25 0 1 0 0 empty empty output-level 20 12 0 14
-228856 -260097 -1 9736 1;
#X floatatom 76 397 5 0 0 0 - - -, f 5;
#X obj 41 398 *~ 0;
#X text 355 240 input from soundcard;
#X obj 324 298 delwrite~ \$0-delay 2000;
#X obj 42 287 vd~ \$0-delay 2000;
#X obj 45 115 hsl 450 25 0 40 0 1 empty empty vibrato-depth 20 12 0
14 -228856 -260097 -1 21442 0;
#X floatatom 141 218 5 0 0 0 - - -, f 5;
#X obj 42 261 *~;
#X msg 324 387 \; pd dsp 1;
#X obj 324 359 loadbang;
#X msg 404 388 \; pd dsp 0;
#X floatatom 53 170 5 0 0 0 - - -, f 5;
#X obj 42 147 pow 2;
#X text 218 136 |;
#X text 184 136 |;
#X text 347 136 |;
#X text 363 136 |;
#N canvas 704 185 202 319 trapezoid 0;
#X obj 25 124 phasor~ 1;
#X obj 25 199 abs~;
#X obj 25 176 *~ 2;
#X obj 25 251 clip~ 0 0.5;
#X obj 25 152 -~ 0.5;
#X obj 25 19 inlet~;
#X obj 25 282 outlet~;
#X obj 25 225 -~ 0.25;
#X text 74 43 resync;
#X msg 76 98 0.625;
#X msg 76 68 0.125;
#X text 116 67 higher note;
#X text 116 98 lower note;
#X connect 0 0 4 0;
#X connect 1 0 7 0;
#X connect 2 0 1 0;
#X connect 3 0 6 0;
#X connect 4 0 2 0;
#X connect 5 0 0 0;
#X connect 7 0 3 0;
#X connect 9 0 0 1;
#X connect 10 0 0 1;
#X restore 130 244 pd trapezoid;
#N canvas 607 254 240 245 depth 0;
#X obj 28 163 line~;
#X msg 28 137 \$1 100;
#X floatatom 54 111 5 0 0 0 - - -, f 5;
#X obj 28 94 /;
#X obj 36 66 t b f;
#X obj 28 29 inlet;
#X obj 69 29 inlet;
#X obj 28 195 outlet~;
#X connect 0 0 7 0;
#X connect 1 0 0 0;
#X connect 3 0 2 0;
#X connect 3 0 1 0;
#X connect 4 0 3 0;
#X connect 4 1 3 1;
#X connect 5 0 3 0;
#X connect 6 0 4 0;
#X restore 42 209 pd depth;
#X obj 41 422 hip~ 40;
#X text 35 503 Step-vibrato: step-wise modulation of variable speed
delay. The modulator is a trapezoid \, therefore you get three different
tones in a sequence of four notes:;
#X text 36 561 original - lower tone - original - higher tone;
#X text 36 591 Around vibrato depth value ~ 500 \, the lower tone has
playback speed zero. With vibrato depth above 500 \, the speed of the
lower tone is negative so the sound is played backwards.;
#X text 37 652 A few sweet spots appear on the vibrato depth scale
\, where undertone and overtone harmonize with the original.;
#X text 36 701 Haig Armen Feb 2018;
#N canvas 956 207 680 532 tcpcom 0;
#X obj 80 102 netreceive 3000;
#X obj 80 166 s p1;
#X obj 121 166 s p2;
#X obj 163 165 s p3;
#X obj 209 165 s p4;
#X text 77 65 Receive messages from Python and route them to the proper
receive objects;
#X obj 80 135 route 0 1 2 3 4 5 6 7;
#X connect 0 0 6 0;
#X connect 6 4 1 0;
#X connect 6 5 2 0;
#X connect 6 6 3 0;
#X connect 6 7 4 0;
#X restore 575 90 pd tcpcom;
#N canvas 1199 287 721 750 routing 0;
#X obj 139 72 hsl 80 15 0 1023 0 0 empty empty empty -2 -8 0 10 -228856
-1 -1 3776 1;
#X obj 136 150 nbx 5 14 -1e+37 1e+37 0 0 empty empty empty 0 -8 0 10
-228856 -1 -1 19.1016 256;
#X obj 136 96 nbx 5 14 -1e+37 1e+37 0 0 empty empty empty 0 -8 0 10
-228856 -1 -1 489 256;
#X obj 136 121 mapper, f 12;
#X text 132 49 input pot 1;
#X text 230 49 pot range;
#X text 232 111 new range;
#X obj 137 210 hsl 80 15 0 1023 0 0 empty empty empty -2 -8 0 10 -228856
-1 -1 3985 1;
#X obj 134 288 nbx 5 14 -1e+37 1e+37 0 0 empty empty empty 0 -8 0 10
-228856 -1 -1 15.3652 256;
#X obj 134 234 nbx 5 14 -1e+37 1e+37 0 0 empty empty empty 0 -8 0 10
-228856 -1 -1 516 256;
#X obj 134 259 mapper, f 12;
#X text 130 187 input pot 2;
#X obj 45 71 r p1;
#X obj 48 210 r p2;
#X obj 45 100 unpack;
#X obj 48 239 unpack;
#X text 276 71 low, f 5;
#X text 277 94 high, f 5;
#X text 278 132 low, f 5;
#X text 279 155 high, f 5;
#X msg 233 69 0;
#X msg 234 92 1024;
#X text 233 190 pot range;
#X text 235 252 new range;
#X text 279 212 low, f 5;
#X text 280 235 high, f 5;
#X text 281 273 low, f 5;
#X text 282 296 high, f 5;
#X msg 236 210 0;
#X msg 237 233 1024;
#X obj 140 362 hsl 80 15 0 1023 0 0 empty empty empty -2 -8 0 10 -228856
-1 -1 3869 1;
#X obj 137 440 nbx 5 14 -1e+37 1e+37 0 0 empty empty empty 0 -8 0 10
-228856 -1 -1 0.489258 256;
#X obj 137 386 nbx 5 14 -1e+37 1e+37 0 0 empty empty empty 0 -8 0 10
-228856 -1 -1 501 256;
#X obj 137 411 mapper, f 12;
#X obj 51 391 unpack;
#X text 236 342 pot range;
#X text 238 404 new range;
#X text 282 364 low, f 5;
#X text 283 387 high, f 5;
#X text 284 425 low, f 5;
#X text 285 448 high, f 5;
#X msg 239 362 0;
#X msg 240 385 1024;
#X text 133 339 input pot 3;
#X obj 51 362 r p3;
#X obj 140 500 hsl 80 15 0 1023 0 0 empty empty empty -2 -8 0 10 -228856
-1 -1 4039 1;
#X obj 137 578 nbx 5 14 -1e+37 1e+37 0 0 empty empty empty 0 -8 0 10
-228856 -1 -1 616.943 256;
#X obj 137 524 nbx 5 14 -1e+37 1e+37 0 0 empty empty empty 0 -8 0 10
-228856 -1 -1 523 256;
#X obj 137 549 mapper, f 12;
#X obj 51 529 unpack;
#X text 236 480 pot range;
#X text 238 542 new range;
#X text 282 502 low, f 5;
#X text 283 525 high, f 5;
#X text 284 563 low, f 5;
#X text 285 586 high, f 5;
#X msg 239 561 1000;
#X msg 240 586 250;
#X msg 239 500 0;
#X msg 240 523 1024;
#X text 133 477 input pot 4;
#X obj 51 500 r p4;
#X msg 233 130 0;
#X msg 234 155 40;
#X msg 236 271 0.5;
#X msg 237 296 30;
#X msg 239 423 0;
#X msg 240 448 1;
#X obj 350 62 loadbang;
#X obj 344 216 loadbang;
#X obj 339 363 loadbang;
#X obj 339 504 loadbang;
#X obj 46 165 s pot1;
#X obj 53 304 s pot2;
#X obj 53 455 s pot3;
#X obj 53 593 s pot4;
#X connect 0 0 2 0;
#X connect 1 0 72 0;
#X connect 2 0 3 0;
#X connect 3 0 1 0;
#X connect 7 0 9 0;
#X connect 8 0 73 0;
#X connect 9 0 10 0;
#X connect 10 0 8 0;
#X connect 12 0 14 0;
#X connect 13 0 15 0;
#X connect 14 0 0 0;
#X connect 15 0 7 0;
#X connect 20 0 3 1;
#X connect 21 0 3 2;
#X connect 28 0 10 1;
#X connect 29 0 10 2;
#X connect 30 0 32 0;
#X connect 31 0 74 0;
#X connect 32 0 33 0;
#X connect 33 0 31 0;
#X connect 34 0 30 0;
#X connect 41 0 33 1;
#X connect 42 0 33 2;
#X connect 44 0 34 0;
#X connect 45 0 47 0;
#X connect 46 0 75 0;
#X connect 47 0 48 0;
#X connect 48 0 46 0;
#X connect 49 0 45 0;
#X connect 56 0 48 3;
#X connect 57 0 48 4;
#X connect 58 0 48 1;
#X connect 59 0 48 2;
#X connect 61 0 49 0;
#X connect 62 0 3 3;
#X connect 63 0 3 4;
#X connect 64 0 10 3;
#X connect 65 0 10 4;
#X connect 66 0 33 3;
#X connect 67 0 33 4;
#X connect 68 0 20 0;
#X connect 68 0 21 0;
#X connect 68 0 62 0;
#X connect 68 0 63 0;
#X connect 69 0 28 0;
#X connect 69 0 29 0;
#X connect 69 0 64 0;
#X connect 69 0 65 0;
#X connect 70 0 41 0;
#X connect 70 0 42 0;
#X connect 70 0 66 0;
#X connect 70 0 67 0;
#X connect 71 0 58 0;
#X connect 71 0 59 0;
#X connect 71 0 56 0;
#X connect 71 0 57 0;
#X restore 576 119 pd routing;
#X obj 38 82 r pot1;
#X obj 133 159 r pot2;
#X obj 61 332 r pot3;
#X connect 0 0 1 0;
#X connect 0 1 1 1;
#X connect 1 0 8 0;
#X connect 3 0 11 0;
#X connect 3 0 22 0;
#X connect 3 0 23 1;
#X connect 4 0 5 0;
#X connect 4 0 6 1;
#X connect 6 0 24 0;
#X connect 9 0 6 0;
#X connect 10 0 17 0;
#X connect 12 0 9 0;
#X connect 14 0 13 0;
#X connect 17 0 16 0;
#X connect 17 0 23 0;
#X connect 22 0 12 1;
#X connect 23 0 12 0;
#X connect 24 0 2 0;
#X connect 24 0 2 1;
#X connect 32 0 10 0;
#X connect 33 0 3 0;
#X connect 34 0 4 0;
