#N canvas 953 28 288 640 10;
#X declare -path patches;
#X obj 81 42 declare -path patches;
#X obj 11 -33 alfaloop;
#N canvas 600 246 680 532 tcpcom 0;
#X text 77 65 Receive messages from Python and route them to the proper
receive objects;
#X obj 79 196 s p1;
#X obj 116 196 s p2;
#X obj 153 196 s p3;
#X obj 191 196 s p4;
#X obj 81 135 route 0 1 2 3 4 5 6 7 8, f 28;
#X obj 271 199 s p5;
#X obj 309 199 s p6;
#X obj 347 198 s p7;
#X obj 384 198 s p8;
#X obj 433 198 s buttons;
#X floatatom 402 125 5 0 0 0 - - -, f 5;
#X obj 80 102 netreceive 3000 1;
#X connect 5 0 1 0;
#X connect 5 1 2 0;
#X connect 5 2 3 0;
#X connect 5 3 4 0;
#X connect 5 4 6 0;
#X connect 5 5 7 0;
#X connect 5 6 8 0;
#X connect 5 7 9 0;
#X connect 5 8 10 0;
#X connect 12 0 5 0;
#X connect 12 0 11 0;
#X restore 1018 -29 pd tcpcom;
#N canvas 487 28 1078 750 routing 0;
#X obj 139 72 hsl 80 15 0 1023 0 0 empty empty empty -2 -8 0 10 -228856
-1 -1 7900 1;
#X obj 136 150 nbx 5 14 -1e+37 1e+37 0 0 empty empty empty 0 -8 0 10
-228856 -1 -1 39.9609 256;
#X obj 136 96 nbx 5 14 -1e+37 1e+37 0 0 empty empty empty 0 -8 0 10
-228856 -1 -1 1023 256;
#X obj 136 121 mapper, f 12;
#X text 132 49 input pot 1;
#X text 230 49 pot range;
#X text 232 111 new range;
#X obj 137 210 hsl 80 15 0 1023 0 0 empty empty empty -2 -8 0 10 -228856
-1 -1 0 1;
#X obj 134 288 nbx 5 14 -1e+37 1e+37 0 0 empty empty empty 0 -8 0 10
-228856 -1 -1 0 256;
#X obj 134 234 nbx 5 14 -1e+37 1e+37 0 0 empty empty empty 0 -8 0 10
-228856 -1 -1 0 256;
#X obj 134 259 mapper, f 12;
#X text 130 187 input pot 2;
#X obj 45 71 r p1;
#X obj 48 210 r p2;
#X obj 45 100 unpack;
#X obj 48 239 unpack;
#X text 276 71 low, f 5;
#X text 277 94 high, f 5;
#X text 278 132 low, f 5;
#X text 279 155 high, f 5;
#X msg 233 69 0;
#X msg 234 92 1024;
#X text 233 190 pot range;
#X text 235 252 new range;
#X text 279 212 low, f 5;
#X text 280 235 high, f 5;
#X text 281 273 low, f 5;
#X text 282 296 high, f 5;
#X msg 236 210 0;
#X msg 237 233 1024;
#X obj 140 362 hsl 80 15 0 1023 0 0 empty empty empty -2 -8 0 10 -228856
-1 -1 0 1;
#X obj 137 440 nbx 5 14 -1e+37 1e+37 0 0 empty empty empty 0 -8 0 10
-228856 -1 -1 0 256;
#X obj 137 386 nbx 5 14 -1e+37 1e+37 0 0 empty empty empty 0 -8 0 10
-228856 -1 -1 0 256;
#X obj 137 411 mapper, f 12;
#X obj 51 391 unpack;
#X text 236 342 pot range;
#X text 238 404 new range;
#X text 282 364 low, f 5;
#X text 283 387 high, f 5;
#X text 284 425 low, f 5;
#X text 285 448 high, f 5;
#X msg 239 362 0;
#X msg 240 385 1024;
#X text 133 339 input pot 3;
#X obj 51 362 r p3;
#X obj 140 500 hsl 80 15 0 1023 0 0 empty empty empty -2 -8 0 10 -228856
-1 -1 0 1;
#X obj 137 578 nbx 5 14 -1e+37 1e+37 0 0 empty empty empty 0 -8 0 10
-228856 -1 -1 0 256;
#X obj 137 524 nbx 5 14 -1e+37 1e+37 0 0 empty empty empty 0 -8 0 10
-228856 -1 -1 0 256;
#X obj 137 549 mapper, f 12;
#X obj 51 529 unpack;
#X text 236 480 pot range;
#X text 238 542 new range;
#X text 282 502 low, f 5;
#X text 283 525 high, f 5;
#X text 284 563 low, f 5;
#X text 285 586 high, f 5;
#X msg 239 500 0;
#X msg 240 523 1024;
#X text 133 477 input pot 4;
#X obj 51 500 r p4;
#X msg 233 130 0;
#X msg 239 423 0;
#X obj 350 62 loadbang;
#X obj 344 216 loadbang;
#X obj 339 363 loadbang;
#X obj 339 504 loadbang;
#X obj 46 165 s pot1;
#X obj 53 304 s pot2;
#X obj 53 455 s pot3;
#X obj 53 593 s pot4;
#X obj 567 66 hsl 80 15 0 1023 0 0 empty empty empty -2 -8 0 10 -228856
-1 -1 0 1;
#X obj 564 144 nbx 5 14 -1e+37 1e+37 0 0 empty empty empty 0 -8 0 10
-228856 -1 -1 0 256;
#X obj 564 90 nbx 5 14 -1e+37 1e+37 0 0 empty empty empty 0 -8 0 10
-228856 -1 -1 0 256;
#X obj 564 115 mapper, f 12;
#X text 658 43 pot range;
#X text 660 105 new range;
#X obj 565 204 hsl 80 15 0 1023 0 0 empty empty empty -2 -8 0 10 -228856
-1 -1 0 1;
#X obj 562 282 nbx 5 14 -1e+37 1e+37 0 0 empty empty empty 0 -8 0 10
-228856 -1 -1 0 256;
#X obj 562 228 nbx 5 14 -1e+37 1e+37 0 0 empty empty empty 0 -8 0 10
-228856 -1 -1 0 256;
#X obj 562 253 mapper, f 12;
#X obj 473 94 unpack;
#X obj 476 233 unpack;
#X text 704 65 low, f 5;
#X text 705 88 high, f 5;
#X text 706 126 low, f 5;
#X text 707 149 high, f 5;
#X msg 661 63 0;
#X msg 662 86 1024;
#X text 661 184 pot range;
#X text 663 246 new range;
#X text 707 206 low, f 5;
#X text 708 229 high, f 5;
#X text 709 267 low, f 5;
#X text 710 290 high, f 5;
#X msg 664 204 0;
#X msg 665 227 1024;
#X obj 568 356 hsl 80 15 0 1023 0 0 empty empty empty -2 -8 0 10 -228856
-1 -1 0 1;
#X obj 565 434 nbx 5 14 -1e+37 1e+37 0 0 empty empty empty 0 -8 0 10
-228856 -1 -1 0 256;
#X obj 565 380 nbx 5 14 -1e+37 1e+37 0 0 empty empty empty 0 -8 0 10
-228856 -1 -1 0 256;
#X obj 565 405 mapper, f 12;
#X obj 479 385 unpack;
#X text 664 336 pot range;
#X text 666 398 new range;
#X text 710 358 low, f 5;
#X text 711 381 high, f 5;
#X text 712 419 low, f 5;
#X text 713 442 high, f 5;
#X msg 667 356 0;
#X msg 668 379 1024;
#X obj 568 494 hsl 80 15 0 1023 0 0 empty empty empty -2 -8 0 10 -228856
-1 -1 0 1;
#X obj 565 572 nbx 5 14 -1e+37 1e+37 0 0 empty empty empty 0 -8 0 10
-228856 -1 -1 0 256;
#X obj 565 518 nbx 5 14 -1e+37 1e+37 0 0 empty empty empty 0 -8 0 10
-228856 -1 -1 0 256;
#X obj 565 543 mapper, f 12;
#X obj 479 523 unpack;
#X text 664 474 pot range;
#X text 666 536 new range;
#X text 710 496 low, f 5;
#X text 711 519 high, f 5;
#X text 712 557 low, f 5;
#X text 713 580 high, f 5;
#X msg 667 494 0;
#X msg 668 517 1024;
#X msg 661 124 0;
#X msg 667 417 0;
#X obj 778 56 loadbang;
#X obj 772 210 loadbang;
#X obj 767 357 loadbang;
#X obj 767 498 loadbang;
#X text 560 43 input pot 5;
#X obj 474 159 s pot5;
#X text 558 181 input pot 6;
#X obj 481 298 s pot6;
#X text 561 333 input pot 7;
#X obj 481 449 s pot7;
#X text 561 471 input pot 8;
#X obj 481 587 s pot8;
#X obj 473 65 r p5;
#X obj 476 204 r p6;
#X obj 479 356 r p7;
#X obj 479 494 r p8;
#X msg 239 561 0;
#X msg 240 586 127;
#X msg 662 149 127;
#X msg 664 265 0;
#X msg 665 290 127;
#X msg 668 442 127;
#X msg 667 555 0;
#X msg 668 580 127;
#X obj 480 637 r buttons;
#X obj 480 665 unpack;
#X obj 532 664 route 1 2 3 4;
#X obj 532 711 s button1;
#X obj 603 711 s button2;
#X obj 675 711 s button3;
#X obj 747 710 s button4;
#X msg 235 159 127;
#X msg 236 271 0;
#X msg 237 296 127;
#X msg 240 448 127;
#X connect 0 0 2 0;
#X connect 1 0 66 0;
#X connect 2 0 3 0;
#X connect 3 0 1 0;
#X connect 7 0 9 0;
#X connect 8 0 67 0;
#X connect 9 0 10 0;
#X connect 10 0 8 0;
#X connect 12 0 14 0;
#X connect 13 0 15 0;
#X connect 14 0 0 0;
#X connect 15 0 7 0;
#X connect 20 0 3 1;
#X connect 21 0 3 2;
#X connect 28 0 10 1;
#X connect 29 0 10 2;
#X connect 30 0 32 0;
#X connect 31 0 68 0;
#X connect 32 0 33 0;
#X connect 33 0 31 0;
#X connect 34 0 30 0;
#X connect 41 0 33 1;
#X connect 42 0 33 2;
#X connect 44 0 34 0;
#X connect 45 0 47 0;
#X connect 46 0 69 0;
#X connect 47 0 48 0;
#X connect 48 0 46 0;
#X connect 49 0 45 0;
#X connect 56 0 48 1;
#X connect 57 0 48 2;
#X connect 59 0 49 0;
#X connect 60 0 3 3;
#X connect 61 0 33 3;
#X connect 62 0 20 0;
#X connect 62 0 21 0;
#X connect 62 0 60 0;
#X connect 62 0 155 0;
#X connect 63 0 28 0;
#X connect 63 0 29 0;
#X connect 63 0 156 0;
#X connect 63 0 157 0;
#X connect 64 0 41 0;
#X connect 64 0 42 0;
#X connect 64 0 61 0;
#X connect 64 0 158 0;
#X connect 65 0 56 0;
#X connect 65 0 57 0;
#X connect 65 0 140 0;
#X connect 65 0 141 0;
#X connect 70 0 72 0;
#X connect 71 0 129 0;
#X connect 72 0 73 0;
#X connect 73 0 71 0;
#X connect 76 0 78 0;
#X connect 77 0 131 0;
#X connect 78 0 79 0;
#X connect 79 0 77 0;
#X connect 80 0 70 0;
#X connect 81 0 76 0;
#X connect 86 0 73 1;
#X connect 87 0 73 2;
#X connect 94 0 79 1;
#X connect 95 0 79 2;
#X connect 96 0 98 0;
#X connect 97 0 133 0;
#X connect 98 0 99 0;
#X connect 99 0 97 0;
#X connect 100 0 96 0;
#X connect 107 0 99 1;
#X connect 108 0 99 2;
#X connect 109 0 111 0;
#X connect 110 0 135 0;
#X connect 111 0 112 0;
#X connect 112 0 110 0;
#X connect 113 0 109 0;
#X connect 120 0 112 1;
#X connect 121 0 112 2;
#X connect 122 0 73 3;
#X connect 123 0 99 3;
#X connect 124 0 86 0;
#X connect 124 0 87 0;
#X connect 124 0 122 0;
#X connect 124 0 142 0;
#X connect 125 0 94 0;
#X connect 125 0 95 0;
#X connect 125 0 143 0;
#X connect 125 0 144 0;
#X connect 126 0 107 0;
#X connect 126 0 108 0;
#X connect 126 0 123 0;
#X connect 126 0 145 0;
#X connect 127 0 120 0;
#X connect 127 0 121 0;
#X connect 127 0 146 0;
#X connect 127 0 147 0;
#X connect 136 0 80 0;
#X connect 137 0 81 0;
#X connect 138 0 100 0;
#X connect 139 0 113 0;
#X connect 140 0 48 3;
#X connect 141 0 48 4;
#X connect 142 0 73 4;
#X connect 143 0 79 3;
#X connect 144 0 79 4;
#X connect 145 0 99 4;
#X connect 146 0 112 3;
#X connect 147 0 112 4;
#X connect 148 0 149 0;
#X connect 149 1 150 0;
#X connect 150 0 151 0;
#X connect 150 1 152 0;
#X connect 150 2 153 0;
#X connect 150 3 154 0;
#X connect 155 0 3 4;
#X connect 156 0 10 3;
#X connect 157 0 10 4;
#X connect 158 0 33 4;
#X restore 1094 -28 pd routing;
#X obj 1018 28 vsl 15 128 0 1 0 0 empty empty empty 0 -9 0 10 -262144
-1 -1 0 1;
#X obj 1018 3 r pot1;
#X obj 1072 28 vsl 15 128 0 127 0 0 empty empty empty 0 -9 0 10 -262144
-1 -1 4900 1;
#X obj 1072 3 r pot2;
#X obj 1124 28 vsl 15 128 0 127 0 0 empty empty empty 0 -9 0 10 -262144
-1 -1 3700 1;
#X obj 1178 28 vsl 15 128 0 127 0 0 empty empty empty 0 -9 0 10 -262144
-1 -1 0 1;
#X obj 1124 3 r pot3;
#X obj 1178 3 r pot4;
#X obj 1020 227 vsl 15 128 0 127 0 0 empty empty empty 0 -9 0 10 -262144
-1 -1 0 1;
#X obj 1074 227 vsl 15 128 0 127 0 0 empty empty empty 0 -9 0 10 -262144
-1 -1 0 1;
#X obj 1126 227 vsl 15 128 0 127 0 0 empty empty empty 0 -9 0 10 -262144
-1 -1 0 1;
#X obj 1180 227 vsl 15 128 0 127 0 0 empty empty empty 0 -9 0 10 -262144
-1 -1 0 1;
#X obj 1020 202 r pot5;
#X obj 1074 202 r pot6;
#X obj 1126 202 r pot7;
#X obj 1180 202 r pot8;
#X obj 1020 391 r button1;
#X obj 1020 414 bng 15 250 50 0 empty empty empty 17 7 0 10 -262144
-1 -1;
#X obj 1126 390 r button2;
#X obj 1020 478 r button3;
#X obj 1126 478 r button4;
#X obj 1020 437 s recBtn;
#X obj 1126 413 bng 15 250 50 0 empty empty empty 17 7 0 10 -262144
-1 -1;
#X obj 1126 436 s overBtn;
#X obj 1020 502 bng 15 250 50 0 empty empty empty 17 7 0 10 -262144
-1 -1;
#X obj 1126 502 bng 15 250 50 0 empty empty empty 17 7 0 10 -262144
-1 -1;
#X obj 1020 525 s autoOverrBtn;
#X obj 1126 525 s audoRecBtn;
#X obj 1018 177 s feedbackValue;
#X connect 4 0 32 0;
#X connect 5 0 4 0;
#X connect 7 0 6 0;
#X connect 10 0 8 0;
#X connect 11 0 9 0;
#X connect 16 0 12 0;
#X connect 17 0 13 0;
#X connect 18 0 14 0;
#X connect 19 0 15 0;
#X connect 20 0 21 0;
#X connect 21 0 25 0;
#X connect 22 0 26 0;
#X connect 23 0 28 0;
#X connect 24 0 29 0;
#X connect 26 0 27 0;
#X connect 28 0 30 0;
#X connect 29 0 31 0;
