#N canvas 454 225 1072 885 10;
#X obj 92 212 routeOSC /pot1 /pot2 /pot3 /pot4 /pot5 /pot6 /pot7;
#X obj 108 124 routeOSC /lop;
#X obj 152 178 routeOSC /but1 /but2 /but3 /but4;
#X obj 87 262 print pot1;
#X obj 160 262 print pot2;
#X obj 586 74 netreceive 3000;
#X obj 586 138 s p1;
#X obj 627 138 s p2;
#X obj 669 137 s p3;
#X obj 715 137 s p4;
#X text 583 37 Receive messages from Python and route them to the proper
receive objects;
#X obj 586 107 route 0 1 2 3 4 5 6 7;
#X obj 106 68 oscparse;
#X obj 37 97 print parsed;
#X obj 106 33 netreceive -u 9002;
#X connect 0 0 3 0;
#X connect 0 1 4 0;
#X connect 1 0 0 0;
#X connect 1 0 2 0;
#X connect 5 0 11 0;
#X connect 11 4 6 0;
#X connect 11 5 7 0;
#X connect 11 6 8 0;
#X connect 11 7 9 0;
#X connect 12 0 1 0;
#X connect 12 0 13 0;
#X connect 14 0 12 0;
